HIERARCHY
ROOT Hips
{
   OFFSET 0.00000 0.00000 0.00000
   CHANNELS 6 Xposition Yposition Zposition Zrotation Xrotation Yrotation
   JOINT RightUpLeg
   {
      OFFSET -7.156640 -6.933656 0.081322
      CHANNELS 3 Zrotation Xrotation Yrotation
      JOINT RightLeg
      {
         OFFSET 0.000000 -35.538158 1.098160
         CHANNELS 3 Zrotation Xrotation Yrotation
         JOINT RightFoot
         {
            OFFSET 0.202839 -33.673920 -1.168472
            CHANNELS 3 Zrotation Xrotation Yrotation
            JOINT RightToes
            {
               OFFSET 0.032000 -3.532072 6.799280
               CHANNELS 3 Zrotation Xrotation Yrotation
               End Site
               {
                  OFFSET -0.064000 -0.109958 7.823832
               }
            }
         }
      }
   }
   JOINT Spine
   {
      OFFSET 0.000000 9.512400 0.000000
      CHANNELS 3 Zrotation Xrotation Yrotation
      JOINT Spine1
      {
         OFFSET 0.000000 20.525920 0.102130
         CHANNELS 3 Zrotation Xrotation Yrotation
         JOINT HEad
         {
            OFFSET 0.000000 6.987328 0.009073
            CHANNELS 3 Zrotation Xrotation Yrotation
            End Site
            {
               OFFSET -0.232000 10.219360 2.011160
            }
         }
         JOINT LeftShoulder1
         {
            OFFSET 7.192000 -0.289802 -0.176000
            CHANNELS 3 Zrotation Xrotation Yrotation
            JOINT LeftArm
            {
               OFFSET 8.226160 -0.002704 0.257698
               CHANNELS 3 Zrotation Xrotation Yrotation
               JOINT LeftForeArm
               {
                  OFFSET 26.213519 0.079315 -1.139472
                  CHANNELS 3 Zrotation Xrotation Yrotation
                  JOINT LeftHand
                  {
                     OFFSET 22.051441 0.068290 0.817728
                     CHANNELS 3 Zrotation Xrotation Yrotation
                     End Site
                     {
                        OFFSET 13.395442 -0.480000 1.202328
                     }
                  }
               }
            }
         }
         JOINT RightShoulder
         {
            OFFSET -7.192000 -0.289802 -0.176000
            CHANNELS 3 Zrotation Xrotation Yrotation
            JOINT RightArm
            {
               OFFSET -8.226160 -0.002704 0.257698
               CHANNELS 3 Zrotation Xrotation Yrotation
               JOINT RightForeArm
               {
                  OFFSET -26.317679 0.079315 -1.139472
                  CHANNELS 3 Zrotation Xrotation Yrotation
                  JOINT RightHand
                  {
                     OFFSET -21.993682 0.068290 0.817728
                     CHANNELS 3 Zrotation Xrotation Yrotation
                     End Site
                     {
                        OFFSET -13.304962 -0.480000 1.202328
                     }
                  }
               }
            }
         }
      }
   }
   JOINT LeftUpLeg
   {
      OFFSET 7.156640 -6.933656 0.081322
      CHANNELS 3 Zrotation Xrotation Yrotation
      JOINT LeftLeg
      {
         OFFSET 0.000000 -35.538158 1.098160
         CHANNELS 3 Zrotation Xrotation Yrotation
         JOINT LeftFoot
         {
            OFFSET -0.202839 -33.673920 -1.168472
            CHANNELS 3 Zrotation Xrotation Yrotation
            JOINT LeftToes
            {
               OFFSET -0.032000 -3.532072 6.799280
               CHANNELS 3 Zrotation Xrotation Yrotation
               End Site
               {
                  OFFSET 0.064000 -0.037958 7.823832
               }
            }
         }
      }
   }
}
MOTION
Frames: 7
Frame Time: 0.016667
-207.633359 94.288720 -483.220131 -3.424707 -11.984229 -8.699451 -11.265829 -13.664997 -157.080882 -25.493042 -26.053113 88.224085 -57.595707 -1.359224 81.422890 22.667366 5.501223 5.418061 0.267157 10.375838 2.769381 -7.022584 31.075633 5.757784 -10.225873 -25.401738 -6.608095 18.473623 35.887132 -24.284924 17.007432 -34.340777 -19.254957 -78.980107 -62.803057 -126.576000 -50.609328 -45.935078 -85.162985 20.165237 128.112069 18.477543 93.175911 163.557499 132.377399 6.771230 214.882683 68.800858 2.761047 -1.523206 50.525044 17.218231 -25.284961 -160.506959 -7.235610 -40.116068 177.277082 -58.364165 -39.869856 78.732799 2.108006 0.525561 -20.296884
-206.932561 94.003743 -482.342331 -4.189664 -11.822521 -9.824066 -11.357510 -12.965429 -156.254729 -25.463012 -25.446114 88.556544 -57.392153 -1.304634 81.726465 22.419450 5.273705 5.878137 1.314642 9.930290 1.516233 -6.241707 31.030987 6.527712 -10.977678 -24.258267 -6.954312 18.141210 35.348483 -23.063978 16.393234 -36.187848 -19.135309 -79.441247 -63.255686 -125.386632 -50.965973 -46.287540 -82.608201 19.883345 128.612243 18.276717 94.147348 161.290983 132.824653 6.359670 212.881232 68.726361 2.103218 -1.831474 50.941033 18.072081 -26.240714 -161.236423 -6.271692 -40.147746 174.663114 -51.494569 -39.030078 78.377254 2.302406 1.562174 -20.692294
-206.041905 93.627318 -481.227257 -4.066686 -12.007374 -11.235272 -12.026719 -12.365602 -155.233234 -25.348813 -25.422840 88.585354 -57.317459 -1.285607 81.598364 22.044512 4.830551 6.270958 0.979223 9.746920 0.935735 -6.606760 29.923595 8.191198 -12.351367 -22.244174 -7.184919 17.297568 34.968485 -21.925648 16.247816 -37.441543 -19.217652 -80.328359 -62.870443 -125.261134 -50.736165 -47.640942 -78.699878 18.525092 127.369450 18.161464 95.452406 158.429721 133.497140 5.794065 209.601526 67.440461 1.772236 -1.351919 50.384123 20.554449 -26.030507 -161.042460 -5.279408 -38.752038 171.964793 -59.662741 -41.899089 78.549443 2.511041 -0.628100 -21.332911
-204.961602 93.263157 -479.903862 -4.941465 -12.259361 -13.011334 -12.064027 -11.546670 -153.836364 -25.194582 -25.302856 89.140997 -57.474143 -0.594852 81.642781 21.632708 4.412185 6.942503 1.720683 9.852209 0.514923 -7.145175 29.106165 10.495324 -13.371737 -20.576785 -7.452233 15.860174 35.795331 -20.184566 16.502768 -38.299347 -18.754572 -81.635316 -60.696619 -125.837739 -50.302431 -47.953215 -77.344079 17.043024 124.906074 17.804447 98.109691 154.279124 135.057702 5.506117 203.478534 66.450945 1.499915 -0.968719 49.865930 20.406848 -26.491923 -160.970183 -6.410918 -38.865890 169.871231 -51.259446 -41.937747 78.904517 2.842198 -0.812214 -21.996421
-203.667542 92.771996 -478.471253 -4.826471 -12.280207 -15.406088 -12.877639 -11.264784 -152.042565 -25.024773 -25.388691 89.533419 -57.669842 -0.165613 81.288445 21.067929 3.542496 7.614334 2.864364 10.307111 -0.522745 -7.629639 27.189364 12.620809 -13.966285 -19.402667 -7.735018 14.824922 37.311575 -18.795195 17.728555 -38.534493 -17.607712 -83.496180 -57.655143 -125.548835 -49.692403 -47.576939 -77.618215 14.955420 121.300649 16.716231 101.951932 148.674995 137.338015 5.417576 195.121484 64.945038 1.358226 -0.409844 48.421854 20.476420 -26.058114 -161.452176 -7.162124 -38.055239 169.621300 -52.202548 -42.851032 79.058579 3.293269 -1.507964 -22.841864
-202.212178 92.230424 -477.045548 -5.006209 -13.409826 -17.808347 -13.943834 -9.711286 -149.649827 -24.708368 -25.164003 89.970762 -58.117622 -0.042591 80.366970 20.425448 2.440025 8.241474 2.586074 10.366039 -1.376403 -9.425124 26.018170 14.883216 -14.262849 -19.192910 -7.995439 12.111618 39.124929 -17.716708 18.190699 -40.108315 -16.109542 -85.386032 -53.486207 -125.541390 -49.584554 -46.361903 -78.104163 13.815588 117.971287 15.448628 106.709145 141.023735 139.518567 4.996008 184.216527 63.740842 0.731886 -0.597031 48.036977 20.872920 -26.564928 -161.930862 -7.545128 -37.429146 169.813338 -53.715845 -43.182956 79.822659 3.817642 -2.231696 -23.359517
-200.548875 91.740626 -475.595353 -5.220127 -14.088440 -20.157469 -14.692756 -8.790510 -147.163939 -23.907969 -25.125356 90.645278 -59.122275 0.763351 79.501804 19.921587 1.830987 9.046695 2.310873 10.125218 -2.628765 -9.873444 23.825158 17.426463 -14.468769 -19.925101 -8.199599 11.694309 41.644278 -16.208283 19.382062 -42.705027 -14.286773 -87.077672 -48.128665 -123.768369 -50.079172 -44.308216 -77.365122 11.910374 114.400286 13.515096 111.576618 132.130952 141.101135 4.479608 172.074650 62.248678 -0.008081 -1.051952 47.928090 20.671853 -26.451161 -162.478084 -8.690074 -38.100653 170.169355 -51.732840 -42.471817 80.362346 4.413214 -2.090235 -23.799531
